<svg xmlns="http://www.w3.org/2000/svg" xmlns:xlink="http://www.w3.org/1999/xlink" width="500" zoomAndPan="magnify" viewBox="0 0 375 374.999991" height="500" preserveAspectRatio="xMidYMid meet" version="1.0"><defs><g/><clipPath id="5aa7afe7b1"><path d="M 115.507812 100 L 258 100 L 258 249.894531 L 115.507812 249.894531 Z M 115.507812 100 " clip-rule="nonzero"/></clipPath><clipPath id="bca76736ea"><path d="M 115.507812 99.894531 L 258 99.894531 L 258 249.894531 L 115.507812 249.894531 Z M 115.507812 99.894531 " clip-rule="nonzero"/></clipPath></defs><g clip-path="url(#5aa7afe7b1)"><path fill="#ffffff" d="M 256.675781 245.882812 C 256.535156 245.714844 256.402344 245.539062 256.269531 245.367188 C 250.78125 240.492188 247.675781 228.613281 246.023438 219.394531 L 237.921875 213.664062 L 245.261719 214.671875 C 245.003906 212.882812 244.808594 211.316406 244.667969 210.085938 L 245.242188 206.972656 L 243.621094 206.496094 C 242.929688 206.078125 242.09375 205.894531 241.308594 205.632812 C 239.699219 205.089844 238.089844 204.550781 236.457031 204.0625 C 234.359375 203.4375 232.238281 202.886719 230.121094 202.320312 C 230.128906 202.265625 230.136719 202.210938 230.148438 202.15625 L 245.660156 202.484375 L 246.09375 201.714844 C 246.175781 201.664062 246.238281 201.609375 246.292969 201.542969 C 246.359375 201.507812 246.394531 201.449219 246.398438 201.378906 C 246.507812 201.183594 246.585938 200.933594 246.738281 200.625 C 246.753906 200.597656 246.765625 200.574219 246.777344 200.546875 C 248.097656 198.710938 249.054688 196.648438 249.746094 194.546875 C 250.28125 193.339844 250.738281 192.105469 251.078125 190.800781 C 251.671875 188.539062 251.757812 186.246094 251.78125 183.921875 C 251.804688 182.3125 251.785156 180.597656 251.320312 179.03125 C 251.320312 179.027344 251.320312 179.023438 251.320312 179.023438 C 251.261719 178.828125 251.195312 178.628906 251.121094 178.441406 C 251.226562 178.257812 251.261719 178.046875 251.199219 177.808594 C 251.519531 175.195312 251.425781 172.691406 250.03125 170.386719 L 250.121094 170.265625 C 250.257812 170.171875 250.375 170.03125 250.4375 169.835938 C 250.554688 169.488281 250.644531 169.136719 250.714844 168.777344 C 250.71875 168.769531 250.71875 168.757812 250.722656 168.746094 C 250.757812 168.585938 250.789062 168.417969 250.816406 168.253906 C 251.695312 162.960938 249.203125 157.09375 249.203125 157.09375 C 249.148438 156.871094 249.078125 156.644531 248.992188 156.414062 C 248.414062 154.1875 247.382812 151.773438 246.109375 149.339844 C 245.53125 147.960938 244.886719 146.609375 244.160156 145.25 C 242.699219 142.53125 240.898438 140.128906 238.960938 137.734375 C 237.273438 135.660156 235.601562 133.503906 233.777344 131.53125 C 233.027344 130.636719 232.578125 130.128906 232.578125 130.128906 C 226.933594 119.351562 220.265625 115.417969 217.222656 114.109375 C 217.085938 114.007812 216.949219 113.898438 216.8125 113.796875 C 216.601562 113.742188 216.394531 113.691406 216.183594 113.632812 C 213.71875 112.0625 210.671875 110.226562 210.671875 110.226562 C 208.609375 108.984375 206.597656 107.707031 204.4375 106.609375 C 201.796875 105.269531 199.019531 104.199219 196.1875 103.355469 C 194.253906 102.78125 192.277344 102.355469 190.277344 102.066406 C 186.421875 100.785156 183.75 101.328125 182.242188 101.949219 C 181.371094 101.976562 180.503906 101.945312 179.644531 101.761719 C 179.636719 101.757812 179.628906 101.757812 179.621094 101.757812 C 178.367188 100.933594 176.015625 101.003906 174.875 100.890625 C 171.472656 100.566406 168.058594 100.613281 164.640625 100.71875 C 160.425781 100.851562 155.683594 101.066406 151.695312 102.546875 C 149.757812 103.261719 147.753906 103.765625 145.824219 104.515625 C 143.992188 105.234375 142.425781 106.359375 140.648438 107.164062 C 140.429688 107.265625 140.375 107.46875 140.429688 107.65625 C 140.398438 107.726562 140.402344 107.816406 140.460938 107.878906 C 142.210938 109.882812 143.75 111.988281 145.179688 114.164062 C 146.550781 116.683594 148.152344 119.777344 149.789062 123.027344 C 144.164062 115.664062 135.863281 107.746094 135.863281 107.746094 C 128.007812 111.089844 115.535156 121.015625 115.535156 121.015625 C 122.695312 124.492188 141.707031 146 147.695312 152.890625 C 148.300781 153.601562 148.914062 154.308594 149.527344 155.015625 C 149.171875 155.316406 148.882812 155.679688 148.679688 156.125 C 147.953125 156.800781 148.300781 158.765625 148.679688 159.453125 C 149.109375 160.246094 149.792969 161.613281 150.792969 161.90625 C 149.273438 163.046875 147.910156 164.347656 146.554688 165.699219 C 145.503906 166.738281 144.511719 167.859375 143.859375 169.15625 C 142.359375 168.925781 140.855469 168.398438 140.648438 168.328125 L 140.636719 168.320312 C 140.636719 168.320312 140.636719 168.320312 140.632812 168.320312 L 140.628906 168.320312 C 140.628906 168.320312 133.5625 182.039062 134.175781 192.324219 C 134.066406 194.8125 134.527344 197.222656 136.132812 199.328125 C 136.328125 199.585938 136.546875 199.84375 136.78125 200.089844 L 135.632812 231.664062 C 135.632812 231.664062 135.640625 231.660156 135.648438 231.65625 L 135.648438 234.085938 C 135.648438 234.085938 137.464844 232.710938 139.011719 231 L 137.125 249.1875 C 137.125 249.1875 142.957031 246.851562 144.566406 244.792969 C 144.5 245.183594 144.429688 245.574219 144.359375 245.96875 L 143.140625 249.894531 C 143.140625 249.894531 148.914062 249.679688 151.457031 248.980469 C 154.078125 248.839844 156.679688 248.769531 159.292969 248.398438 C 164.414062 247.664062 169.238281 245.378906 172.960938 241.773438 C 173.792969 240.972656 174.5 240.09375 175.113281 239.160156 C 176.183594 237.535156 176.949219 235.742188 177.570312 233.882812 C 177.597656 233.871094 177.621094 233.855469 177.644531 233.84375 L 176.636719 244.355469 C 183.914062 248.277344 218.328125 244.816406 218.328125 244.816406 L 217.214844 241.304688 C 221.839844 240.710938 222.140625 239.625 222.140625 239.625 L 215.859375 219.285156 C 217.101562 220.019531 219.300781 219.550781 220.316406 218.617188 C 220.535156 218.601562 220.753906 218.527344 220.925781 218.390625 C 221.96875 219.574219 222.820312 221.0625 223.578125 222.375 C 224.675781 224.269531 225.960938 226.050781 227.246094 227.820312 C 229.785156 231.332031 232.875 234.34375 236.011719 237.3125 C 239.066406 240.207031 242.347656 242.585938 246.09375 244.503906 C 247.785156 245.367188 249.597656 245.945312 251.453125 246.375 C 253.675781 246.984375 255.199219 247.238281 256.25 247.308594 C 256.285156 247.328125 256.324219 247.34375 256.363281 247.359375 C 256.449219 247.394531 256.53125 247.371094 256.597656 247.328125 C 256.695312 247.332031 256.789062 247.332031 256.878906 247.332031 C 256.898438 247.332031 256.914062 247.335938 256.933594 247.339844 C 256.957031 247.34375 256.96875 247.335938 256.988281 247.328125 C 257.445312 247.324219 257.765625 247.273438 257.992188 247.207031 C 257.523438 246.808594 257.078125 246.375 256.675781 245.882812 Z M 144.46875 213.144531 C 144.515625 212.765625 144.5625 212.382812 144.601562 212.003906 C 144.746094 210.757812 144.875 209.511719 145.027344 208.269531 C 145.136719 207.347656 145.429688 206.390625 145.519531 205.457031 L 149.175781 204.472656 C 148.984375 206.125 148.617188 207.773438 147.867188 209.253906 C 147.0625 210.847656 145.332031 211.671875 144.46875 213.144531 Z M 144.46875 213.144531 " fill-opacity="1" fill-rule="nonzero"/></g><g clip-path="url(#bca76736ea)"><path fill="#000000" d="M 256.675781 245.882812 C 256.535156 245.714844 256.402344 245.539062 256.269531 245.367188 C 250.78125 240.492188 247.675781 228.613281 246.023438 219.394531 L 237.921875 213.664062 L 245.261719 214.671875 L 245.242188 206.972656 L 243.621094 206.496094 C 242.929688 206.078125 242.09375 205.894531 241.308594 205.632812 C 239.699219 205.089844 238.089844 204.550781 236.457031 204.0625 C 234.359375 203.4375 232.238281 202.886719 230.121094 202.320312 C 230.128906 202.265625 230.136719 202.210938 230.148438 202.15625 L 245.660156 202.484375 L 246.09375 201.714844 C 246.175781 201.664062 246.238281 201.609375 246.292969 201.542969 C 246.359375 201.507812 246.394531 201.449219 246.398438 201.378906 C 246.507812 201.183594 246.585938 200.933594 246.738281 200.625 C 246.753906 200.597656 246.765625 200.574219 246.777344 200.546875 C 248.097656 198.710938 249.054688 196.648438 249.746094 194.546875 C 250.28125 193.339844 250.738281 192.105469 251.078125 190.800781 C 251.671875 188.539062 251.757812 186.246094 251.78125 183.921875 C 251.804688 182.332031 251.785156 180.636719 251.332031 179.089844 C 253.550781 176.304688 252.285156 170.164062 252.285156 170.164062 L 250.121094 170.550781 C 250.089844 170.496094 250.0625 170.441406 250.03125 170.390625 L 250.121094 170.269531 C 250.257812 170.171875 250.375 170.03125 250.4375 169.835938 C 250.554688 169.488281 250.644531 169.136719 250.714844 168.777344 C 250.71875 168.769531 250.71875 168.757812 250.722656 168.75 C 250.757812 168.585938 250.789062 168.417969 250.816406 168.253906 C 251.695312 162.960938 249.203125 157.09375 249.203125 157.09375 C 249.148438 156.871094 249.078125 156.644531 248.992188 156.414062 C 248.414062 154.1875 247.382812 151.773438 246.109375 149.339844 C 245.53125 147.960938 244.886719 146.609375 244.160156 145.25 C 242.699219 142.53125 240.898438 140.128906 238.960938 137.738281 C 237.273438 135.660156 235.601562 133.503906 233.777344 131.535156 C 233.027344 130.636719 232.578125 130.128906 232.578125 130.128906 C 230.382812 125.941406 228.035156 122.789062 225.804688 120.421875 L 225.835938 120.433594 C 222.488281 115.589844 216.132812 110.972656 216.132812 110.972656 L 214.617188 112.648438 C 212.589844 111.382812 210.671875 110.226562 210.671875 110.226562 C 208.609375 108.984375 206.597656 107.707031 204.433594 106.609375 C 201.796875 105.269531 199.019531 104.203125 196.183594 103.355469 C 195.664062 103.203125 195.136719 103.058594 194.605469 102.925781 C 189.453125 100.429688 181.253906 99.894531 181.253906 99.894531 L 181.253906 101.945312 C 179.875 101.265625 176.675781 100.296875 169.902344 100.644531 L 169.910156 100.648438 C 168.15625 100.628906 166.398438 100.664062 164.640625 100.71875 C 160.425781 100.851562 155.683594 101.066406 151.695312 102.546875 C 149.757812 103.261719 147.753906 103.765625 145.824219 104.515625 C 143.992188 105.230469 142.421875 106.355469 140.648438 107.164062 C 140.425781 107.265625 140.375 107.46875 140.429688 107.65625 C 140.398438 107.726562 140.402344 107.816406 140.460938 107.878906 C 142.210938 109.882812 143.75 111.988281 145.179688 114.164062 C 146.550781 116.683594 148.152344 119.777344 149.789062 123.027344 C 144.164062 115.664062 135.863281 107.746094 135.863281 107.746094 C 128.007812 111.089844 115.535156 121.015625 115.535156 121.015625 C 122.695312 124.492188 141.707031 146 147.695312 152.890625 C 148.300781 153.601562 148.914062 154.308594 149.527344 155.015625 C 149.171875 155.316406 148.882812 155.679688 148.679688 156.125 C 147.953125 156.800781 148.300781 158.765625 148.679688 159.453125 C 149.109375 160.246094 149.792969 161.613281 150.792969 161.90625 C 149.273438 163.046875 147.910156 164.347656 146.554688 165.699219 C 145.503906 166.738281 144.511719 167.859375 143.859375 169.15625 C 142.359375 168.925781 140.855469 168.398438 140.648438 168.328125 L 143.414062 170.222656 C 143.410156 170.234375 143.402344 170.242188 143.398438 170.253906 L 140.648438 168.328125 L 140.636719 168.320312 C 140.636719 168.320312 140.636719 168.320312 140.632812 168.320312 L 140.628906 168.320312 C 140.628906 168.320312 133.5625 182.039062 134.175781 192.324219 C 134.066406 194.8125 134.527344 197.222656 136.132812 199.328125 C 136.328125 199.585938 136.546875 199.84375 136.78125 200.089844 L 135.632812 231.664062 C 135.632812 231.664062 135.640625 231.660156 135.648438 231.65625 L 135.648438 234.085938 C 135.648438 234.085938 137.464844 232.710938 139.011719 231 L 137.125 249.1875 C 137.125 249.1875 142.957031 246.851562 144.566406 244.792969 C 144.5 245.183594 144.429688 245.574219 144.359375 245.96875 L 143.140625 249.894531 C 143.140625 249.894531 148.914062 249.679688 151.457031 248.980469 C 154.078125 248.839844 156.679688 248.769531 159.292969 248.398438 C 164.414062 247.664062 169.238281 245.378906 172.960938 241.773438 C 173.792969 240.972656 174.5 240.09375 175.113281 239.160156 C 176.183594 237.535156 176.949219 235.742188 177.570312 233.882812 C 177.597656 233.871094 177.621094 233.855469 177.644531 233.84375 L 176.636719 244.355469 C 183.914062 248.277344 218.328125 244.816406 218.328125 244.816406 L 217.214844 241.304688 C 221.839844 240.710938 222.140625 239.625 222.140625 239.625 L 216.0625 219.949219 C 217.300781 220.5625 219.199219 220.847656 221.898438 219.644531 C 222.519531 220.539062 223.070312 221.496094 223.578125 222.375 C 224.675781 224.269531 225.960938 226.050781 227.246094 227.824219 C 229.785156 231.332031 232.875 234.34375 236.011719 237.3125 C 239.066406 240.207031 242.347656 242.585938 246.09375 244.503906 C 247.785156 245.367188 249.597656 245.945312 251.453125 246.375 C 253.675781 246.984375 255.199219 247.238281 256.25 247.308594 C 256.285156 247.328125 256.324219 247.34375 256.363281 247.359375 C 256.449219 247.394531 256.53125 247.371094 256.597656 247.328125 C 256.695312 247.332031 256.789062 247.332031 256.878906 247.332031 C 256.898438 247.332031 256.914062 247.335938 256.933594 247.339844 C 256.957031 247.34375 256.96875 247.335938 256.988281 247.332031 C 257.445312 247.324219 257.765625 247.273438 257.992188 247.207031 C 257.523438 246.808594 257.078125 246.375 256.675781 245.882812 Z M 246.007812 196.441406 C 245.84375 196.800781 245.6875 197.125 245.550781 197.40625 L 230.40625 190.957031 C 230.394531 190.835938 230.382812 190.71875 230.371094 190.597656 L 247.304688 192.527344 C 246.863281 194.015625 246.398438 195.367188 246.007812 196.441406 Z M 235.867188 139.683594 L 225.605469 152.820312 L 237.921875 143.039062 C 239.734375 146.074219 241.476562 149.203125 242.871094 151.78125 L 221.519531 165.691406 C 221.449219 165.609375 221.382812 165.527344 221.3125 165.449219 L 233.921875 154.613281 L 218.417969 162.464844 C 217.050781 161.1875 215.699219 160.085938 214.476562 159.171875 L 219.007812 152.300781 L 232.214844 134.410156 C 233.351562 135.859375 234.597656 137.6875 235.867188 139.683594 Z M 226.980469 128.679688 L 224.691406 126.117188 L 219.023438 134.914062 L 227.058594 128.769531 C 227.058594 128.765625 227.058594 128.765625 227.0625 128.765625 C 227.078125 128.785156 227.089844 128.804688 227.105469 128.820312 L 223.527344 138.09375 L 230.207031 132.191406 C 230.230469 132.203125 230.25 132.214844 230.273438 132.226562 C 230.566406 132.496094 230.875 132.816406 231.195312 133.179688 L 230.046875 134.910156 L 210.542969 156.53125 C 209.929688 156.167969 209.574219 155.980469 209.574219 155.980469 C 208.507812 155.324219 207.429688 154.671875 206.335938 154.046875 C 206.285156 154.023438 206.238281 153.996094 206.1875 153.96875 C 206.132812 153.933594 206.074219 153.902344 206.015625 153.871094 L 219.78125 121.253906 C 220.566406 122.015625 221.347656 122.777344 222.132812 123.542969 C 222.308594 123.710938 222.484375 123.878906 222.660156 124.054688 C 222.824219 124.207031 222.980469 124.371094 223.140625 124.53125 C 223.140625 124.527344 223.140625 124.527344 223.144531 124.523438 C 223.671875 125.046875 224.1875 125.578125 224.691406 126.117188 C 225.21875 126.671875 225.730469 127.238281 226.234375 127.8125 L 226.230469 127.816406 C 226.480469 128.101562 226.730469 128.390625 226.980469 128.679688 Z M 200.476562 109.0625 C 200.832031 109.210938 201.1875 109.359375 201.546875 109.507812 C 201.777344 109.605469 202.011719 109.703125 202.246094 109.796875 C 202.347656 109.839844 202.449219 109.882812 202.554688 109.921875 C 205.117188 110.976562 207.679688 112.082031 210.085938 113.46875 L 210.15625 113.644531 L 207.761719 122.625 L 213.691406 115.859375 C 214.09375 116.164062 214.492188 116.480469 214.882812 116.796875 C 215.855469 117.597656 216.796875 118.429688 217.722656 119.289062 C 218.085938 119.625 218.445312 119.96875 218.804688 120.308594 L 218.371094 121.300781 L 201.078125 151.472656 C 199.992188 151.046875 198.902344 150.664062 197.796875 150.3125 L 203.605469 126.433594 L 193.253906 148.804688 C 191.125 148.128906 189.074219 147.605469 187.113281 147.210938 L 189.148438 105.351562 C 190.171875 105.460938 191.183594 105.640625 192.144531 105.929688 C 192.269531 105.964844 192.394531 106.007812 192.523438 106.046875 C 192.832031 106.140625 193.136719 106.234375 193.445312 106.332031 C 194.265625 106.605469 195.078125 106.902344 195.886719 107.210938 L 193.035156 139.066406 Z M 182.128906 105.542969 C 183.148438 105.304688 184.214844 105.222656 185.136719 105.203125 C 185.507812 105.195312 185.882812 105.195312 186.261719 105.199219 C 186.558594 105.199219 186.855469 105.203125 187.15625 105.210938 C 187.761719 105.234375 188.371094 105.269531 188.972656 105.332031 L 182.46875 146.480469 C 181.726562 146.398438 181.003906 146.332031 180.296875 146.277344 Z M 168.042969 104.195312 C 168.050781 104.195312 168.058594 104.195312 168.066406 104.191406 L 168.085938 104.539062 Z M 157.320312 109.945312 L 156.320312 105.914062 C 159.894531 105.09375 163.9375 104.398438 167.910156 104.199219 L 168.429688 146.851562 C 168.125 146.90625 167.828125 146.964844 167.550781 147.019531 Z M 173.480469 145.597656 L 169.199219 104.15625 C 172.480469 104.085938 175.671875 104.386719 178.464844 105.277344 L 177.492188 146.15625 C 176.09375 146.132812 174.78125 146.167969 173.566406 146.242188 Z M 145.171875 109.203125 C 146.371094 108.761719 150.078125 107.445312 154.839844 106.269531 L 163.699219 145.628906 C 160.65625 135.339844 147.929688 113.804688 145.171875 109.203125 Z M 136.984375 112.417969 C 137.140625 112.378906 137.289062 112.296875 137.40625 112.164062 C 137.441406 112.121094 137.476562 112.082031 137.511719 112.042969 L 148.953125 126.152344 C 149.296875 126.726562 149.636719 127.296875 149.964844 127.875 C 152.203125 131.851562 154.371094 135.863281 156.425781 139.9375 C 156.773438 140.527344 157.113281 141.125 157.457031 141.714844 C 157.691406 142.113281 157.828125 142.511719 157.890625 142.902344 C 158.820312 144.8125 159.714844 146.738281 160.574219 148.683594 C 160.546875 148.695312 160.519531 148.710938 160.496094 148.71875 C 159.828125 148.941406 159.128906 149.179688 158.425781 149.4375 C 155.730469 145.296875 140.753906 122.355469 133.945312 114.25 C 134.988281 113.695312 136.011719 113.105469 136.984375 112.417969 Z M 132.023438 115.222656 C 137.511719 123.21875 152.402344 144.917969 156.0625 150.324219 C 156.011719 150.34375 155.96875 150.359375 155.921875 150.378906 C 155.230469 150.648438 154.554688 150.917969 153.914062 151.175781 C 149.566406 145.039062 134.089844 123.484375 127.117188 117.859375 C 128.734375 116.851562 130.160156 115.574219 132.023438 115.222656 Z M 136.140625 136.304688 C 133.449219 133.550781 130.585938 130.980469 127.628906 128.519531 C 125.414062 126.675781 123.039062 124.550781 120.40625 123.257812 C 120.960938 122.570312 121.863281 121.949219 122.65625 121.371094 C 122.660156 121.367188 122.664062 121.363281 122.667969 121.359375 C 122.972656 121.140625 123.253906 120.929688 123.5 120.726562 C 123.695312 120.5625 123.894531 120.410156 124.09375 120.253906 C 129.375 126.101562 148.074219 146.789062 152.785156 151.636719 C 152.070312 151.933594 151.429688 152.207031 150.90625 152.425781 C 150.90625 152.417969 150.90625 152.414062 150.910156 152.40625 C 146.25 146.828125 141.21875 141.503906 136.140625 136.304688 Z M 146.960938 166.792969 C 147.339844 166.433594 147.722656 166.082031 148.09375 165.734375 C 148.289062 165.558594 148.480469 165.378906 148.679688 165.210938 C 148.699219 165.1875 148.71875 165.167969 148.738281 165.152344 L 148.953125 164.953125 C 150.496094 163.570312 152.058594 162.308594 153.9375 161.332031 C 158.246094 159.09375 163.363281 158.320312 168.089844 157.46875 C 178.714844 155.554688 190.109375 157.359375 199.675781 162.320312 C 204.253906 164.695312 209.035156 168.410156 211.953125 172.699219 C 211.953125 172.699219 218.585938 183.535156 218.855469 195.101562 L 218.21875 201.742188 C 218.078125 202.347656 217.914062 202.949219 217.722656 203.546875 C 211.011719 218.980469 195.808594 223.589844 195.808594 223.589844 C 196.886719 224.050781 197.996094 224.328125 199.105469 224.464844 C 199.128906 224.535156 199.1875 224.585938 199.273438 224.578125 C 199.425781 224.570312 199.574219 224.546875 199.726562 224.53125 C 202.417969 224.75 205.074219 224.191406 207.289062 223.4375 C 208.316406 223.140625 209.308594 222.753906 210.292969 222.308594 C 210.902344 222.03125 211.945312 221.46875 212.953125 220.753906 L 214.097656 226.019531 C 207.042969 229.203125 195.574219 231.433594 195.574219 231.433594 C 200.050781 232.457031 206.023438 232.09375 210.460938 231.566406 C 201.738281 234.125 185.632812 235.230469 182.289062 235.433594 L 182.992188 218.945312 L 184.140625 200.320312 C 184.308594 200.339844 184.476562 200.367188 184.648438 200.402344 C 184.996094 200.316406 185.335938 200.21875 185.65625 200.09375 L 188.445312 199.707031 L 190.957031 169.476562 L 185.929688 170.65625 C 165.980469 175.265625 152.464844 172.714844 146.957031 171.152344 C 145.742188 168.5 147.839844 166.042969 148.675781 165.210938 Z M 151.695312 159.316406 C 151.730469 159.300781 151.769531 159.289062 151.804688 159.277344 C 151.804688 159.308594 151.804688 159.335938 151.804688 159.367188 C 151.769531 159.351562 151.730469 159.332031 151.695312 159.316406 Z M 155.625 158.101562 C 155.820312 158.042969 156.007812 157.984375 156.203125 157.933594 C 156.015625 158.007812 155.820312 158.066406 155.625 158.101562 Z M 180.214844 211.660156 C 179.605469 216.421875 178.136719 225.585938 175.339844 230.949219 C 175.117188 231.238281 174.898438 231.53125 174.664062 231.8125 C 174.507812 232.011719 174.347656 232.199219 174.1875 232.390625 C 173.984375 232.628906 173.785156 232.863281 173.582031 233.09375 C 173.5 233.1875 173.417969 233.28125 173.328125 233.371094 L 172.679688 227.933594 L 170.96875 213.589844 L 170.46875 209.40625 C 170.441406 209.410156 170.414062 209.414062 170.386719 209.417969 L 169.757812 236.503906 C 168.71875 237.265625 167.632812 237.96875 166.542969 238.648438 L 165.265625 221.558594 L 164.621094 212.914062 L 164.492188 211.183594 C 164.410156 211.21875 164.328125 211.25 164.246094 211.28125 L 161.128906 241.570312 C 160.117188 242 159.09375 242.375 158.039062 242.699219 L 158.039062 212.503906 C 158.003906 212.523438 157.96875 212.546875 157.9375 212.566406 C 157.886719 212.601562 157.839844 212.640625 157.78125 212.683594 L 156.988281 216.8125 C 156.0625 220.652344 155.300781 224.519531 154.757812 228.433594 L 151.742188 244.136719 C 151.738281 244.136719 151.726562 244.140625 151.71875 244.140625 C 151.414062 244.183594 151.109375 244.226562 150.800781 244.257812 C 150.386719 244.300781 149.96875 244.332031 149.550781 244.347656 C 149.410156 244.355469 149.273438 244.355469 149.132812 244.355469 C 148.558594 244.363281 147.820312 244.332031 147.214844 244.515625 C 147.214844 244.503906 147.214844 244.484375 147.210938 244.472656 C 147.199219 244.359375 147.179688 244.246094 147.167969 244.136719 C 147.15625 244.140625 147.144531 244.136719 147.136719 244.140625 L 153.460938 211.539062 C 153.9375 211.433594 154.4375 211.386719 154.890625 211.316406 C 155.851562 211.15625 156.773438 210.785156 157.714844 210.535156 C 159.972656 209.933594 162.246094 208.945312 164.289062 207.816406 C 166.21875 206.75 167.941406 205.460938 169.289062 203.710938 C 170.027344 202.746094 170.429688 201.742188 170.710938 200.671875 C 172.363281 200.003906 174.023438 199.484375 175.777344 199.125 C 176.523438 198.96875 177.902344 198.546875 178.980469 198.558594 C 179.070312 198.652344 179.15625 198.75 179.234375 198.847656 C 179.609375 199.300781 179.789062 199.957031 180.363281 200.179688 C 180.421875 200.199219 180.480469 200.203125 180.535156 200.199219 C 180.597656 200.238281 180.664062 200.257812 180.730469 200.273438 Z M 181.445312 219.886719 C 181.464844 219.011719 181.546875 218.140625 181.605469 217.265625 C 181.582031 217.617188 181.492188 218.875 181.445312 219.886719 Z M 180.480469 194.484375 C 180.332031 194.398438 180.160156 194.308594 179.976562 194.21875 C 179.652344 194.039062 179.273438 193.882812 178.835938 193.765625 C 178.238281 193.582031 177.609375 193.480469 177.050781 193.570312 C 175.574219 193.597656 173.667969 194.039062 171.207031 195.203125 C 171.207031 195.203125 174.128906 194.839844 176.742188 195.40625 L 143.140625 202.585938 L 142.449219 206.28125 L 142.527344 206.261719 C 142.261719 207.738281 142.253906 209.335938 142.019531 210.789062 C 141.65625 213.042969 141.625 215.367188 141.316406 217.632812 C 141 219.914062 140.585938 222.414062 139.664062 224.535156 C 139.1875 225.628906 138.402344 226.550781 137.675781 227.507812 C 137.671875 227.507812 137.671875 227.507812 137.667969 227.511719 C 137.480469 227.722656 137.277344 227.917969 137.109375 228.082031 C 137.289062 224.292969 137.484375 220.5 137.671875 216.707031 L 139.3125 200.503906 C 139.132812 200.46875 138.957031 200.429688 138.796875 200.375 C 138.96875 200.402344 139.140625 200.421875 139.320312 200.429688 L 139.3125 200.503906 C 142.433594 201.082031 148.277344 198.890625 151.453125 197.546875 C 150.464844 197.5625 149.480469 197.527344 148.496094 197.472656 C 142.3125 197.453125 138.53125 193.207031 137.027344 191.082031 C 136.777344 190.402344 136.5625 189.667969 136.449219 188.914062 C 136.535156 188.417969 136.628906 187.90625 136.726562 187.367188 C 138.890625 180.371094 143.445312 172.449219 143.808594 171.820312 C 145.117188 172.464844 146.382812 173.160156 147.789062 173.648438 C 149.859375 174.375 152.027344 174.703125 154.195312 174.96875 C 158.777344 175.53125 163.25 175.589844 167.855469 175.566406 C 171.039062 175.546875 174.171875 175.535156 177.332031 175.160156 C 178.851562 175.070312 180.230469 174.972656 181.417969 174.878906 C 181.71875 174.914062 182.011719 174.976562 182.289062 175.066406 L 183.367188 198.582031 C 182.789062 198.226562 182.484375 197.1875 182.320312 196.382812 C 182.058594 196.046875 181.832031 195.695312 181.640625 195.324219 C 181.242188 194.964844 180.8125 194.671875 180.480469 194.484375 Z M 216.871094 238.8125 C 215.195312 238.980469 213.542969 239.222656 211.859375 239.320312 C 208.355469 239.523438 204.835938 239.5625 201.328125 239.707031 C 197.804688 239.847656 194.324219 239.917969 190.792969 239.859375 C 189.039062 239.828125 187.285156 239.777344 185.527344 239.820312 C 184.386719 239.847656 183.269531 239.925781 182.15625 239.816406 C 182.160156 239.792969 182.160156 239.769531 182.160156 239.742188 C 182.15625 239.480469 182.148438 239.222656 182.140625 238.964844 L 182.214844 237.242188 C 184.074219 237.527344 190.863281 237.164062 197.945312 236.664062 C 198.601562 236.648438 199.257812 236.636719 199.914062 236.617188 C 205.332031 236.480469 210.816406 236.453125 216.210938 235.78125 Z M 225.1875 198.152344 C 225.175781 198.164062 225.167969 198.171875 225.15625 198.183594 C 225.214844 200.027344 224.917969 201.9375 224.582031 203.582031 C 224.347656 204.714844 224.035156 206.089844 223.535156 207.371094 C 221.476562 208.222656 220.492188 207.117188 220.035156 206.097656 C 224.488281 194.660156 220.078125 183.765625 219.972656 183.46875 C 219.113281 181.0625 217.976562 178.75 216.632812 176.597656 C 215.421875 174.652344 214.265625 172.652344 212.878906 170.824219 C 211.683594 169.253906 210.199219 167.875 208.691406 166.578125 C 208.214844 165.917969 207.507812 165.351562 206.984375 164.8125 C 206.253906 164.058594 205.359375 163.242188 204.375 162.847656 C 204.359375 162.839844 204.34375 162.839844 204.328125 162.835938 C 203.210938 161.738281 201.617188 160.914062 200.394531 160.179688 C 198.441406 159.003906 196.363281 158.054688 194.246094 157.21875 C 189.984375 155.527344 185.457031 154.542969 180.898438 154.097656 C 170.753906 153.109375 160.273438 154.644531 150.988281 158.898438 C 150.972656 158.890625 150.953125 158.878906 150.9375 158.867188 C 150.003906 158.222656 149.46875 157.207031 149.765625 156.089844 C 149.769531 156.078125 149.765625 156.070312 149.765625 156.058594 C 149.910156 155.910156 150.066406 155.785156 150.242188 155.675781 C 150.320312 155.703125 150.402344 155.722656 150.480469 155.730469 C 150.597656 155.597656 150.773438 155.496094 150.953125 155.445312 C 151.082031 155.40625 151.21875 155.378906 151.355469 155.367188 C 151.46875 155.320312 151.582031 155.28125 151.699219 155.253906 C 151.753906 155.199219 151.804688 155.140625 151.847656 155.074219 C 151.992188 155.039062 152.132812 155.003906 152.269531 154.972656 C 153.421875 154.6875 154.550781 154.242188 155.664062 153.832031 C 158.25 152.890625 160.832031 151.945312 163.476562 151.179688 C 168.894531 149.609375 174.652344 149.527344 180.210938 150.28125 C 188.609375 151.421875 197.203125 154.003906 204.675781 158.003906 C 212.65625 162.273438 218.511719 168.601562 221.984375 176.957031 C 224.804688 183.75 225.863281 190.992188 225.1875 198.152344 Z M 225.488281 171.464844 C 225.195312 170.910156 224.886719 170.367188 224.566406 169.839844 L 245.144531 156.0625 C 245.648438 157.023438 245.933594 157.589844 245.933594 157.589844 C 246.480469 158.351562 246.878906 159.734375 247.175781 161.332031 Z M 227.929688 178.351562 L 248.488281 172.15625 C 248.9375 173.867188 248.535156 176.890625 248.339844 178.140625 L 228.132812 178.992188 C 228.066406 178.777344 228 178.566406 227.929688 178.351562 Z M 248.859375 185.40625 C 248.59375 187.65625 248.035156 190.015625 247.421875 192.125 L 229.660156 185.40625 Z M 248.859375 185.40625 " fill-opacity="1" fill-rule="nonzero"/></g><path fill="#ffffff" d="M 220.875 203.59375 C 220.875 203.59375 216.949219 215.589844 216.828125 217.585938 L 222.371094 217.585938 C 222.371094 217.585938 226.195312 201.027344 225.375 193.246094 " fill-opacity="1" fill-rule="nonzero"/><path fill="#000000" d="M 150.792969 161.90625 L 149.886719 162.636719 L 150.242188 163.039062 C 150.242188 163.039062 149.386719 163.039062 149.550781 163.644531 C 149.714844 164.253906 148.078125 165.03125 148.078125 165.03125 C 148.078125 165.03125 145.652344 168.40625 145.480469 168.664062 C 145.304688 168.925781 144.699219 170.394531 144.699219 170.394531 L 143.402344 170.253906 C 143.402344 170.253906 142.621094 176.886719 142.96875 170.65625 C 143.234375 165.875 146.519531 162.980469 148.035156 161.890625 C 144.816406 158.363281 148.90625 154.296875 148.90625 154.296875 L 150.070312 154.644531 L 150.242188 155.675781 L 149.722656 156.277344 L 149.203125 156.808594 L 149.203125 158.105469 L 150.417969 160.617188 Z M 214.75 216.203125 L 216.828125 218.273438 C 220.984375 211.117188 222.007812 196.007812 222.007812 196.007812 Z M 221.710938 219.378906 L 218.378906 218.273438 L 214.171875 218.273438 L 216.066406 220.625 L 214.171875 221.046875 L 223.410156 221.046875 L 223.410156 219.660156 Z M 119.742188 122.9375 L 147.695312 152.890625 L 150.90625 152.425781 L 120.734375 121.125 Z M 119.742188 122.9375 " fill-opacity="1" fill-rule="nonzero"/><g fill="#ffffff" fill-opacity="1"><g transform="translate(201.713099, 92.232354)"><g><path d="M 9.484375 3.40625 C 10.273438 3.6875 11.050781 3.644531 11.8125 3.28125 C 12.570312 2.925781 13.097656 2.347656 13.390625 1.546875 L 14.640625 -1.953125 C 14.921875 -2.742188 14.878906 -3.515625 14.515625 -4.265625 C 14.160156 -5.023438 13.585938 -5.546875 12.796875 -5.828125 L 4.609375 -8.765625 L 1.296875 0.46875 Z M 9.890625 2.265625 L 2.828125 -0.265625 L 5.328125 -7.21875 L 12.390625 -4.6875 C 12.867188 -4.519531 13.210938 -4.207031 13.421875 -3.75 C 13.628906 -3.289062 13.648438 -2.828125 13.484375 -2.359375 L 12.234375 1.140625 C 12.066406 1.617188 11.753906 1.96875 11.296875 2.1875 C 10.835938 2.40625 10.367188 2.429688 9.890625 2.265625 Z M 9.890625 2.265625 "/></g></g></g><g fill="#ffffff" fill-opacity="1"><g transform="translate(214.441502, 96.737325)"><g><path d="M 12.390625 6.75 L 11.109375 6.046875 L 10.84375 3.375 L 3.84375 -0.4375 L 1.46875 0.796875 L 0.171875 0.09375 L 10.6875 -5.34375 L 11.25 -5.046875 Z M 10.703125 1.90625 L 10.15625 -3.703125 L 5.15625 -1.109375 Z M 10.703125 1.90625 "/></g></g></g><g fill="#ffffff" fill-opacity="1"><g transform="translate(226.459211, 103.240766)"><g><path d="M 7.75 5.890625 C 8.414062 6.398438 9.164062 6.597656 10 6.484375 C 10.832031 6.367188 11.503906 5.976562 12.015625 5.3125 L 14.265625 2.34375 C 14.773438 1.675781 14.972656 0.925781 14.859375 0.09375 C 14.742188 -0.738281 14.351562 -1.410156 13.6875 -1.921875 L 9.171875 -5.359375 C 8.503906 -5.859375 7.753906 -6.050781 6.921875 -5.9375 C 6.097656 -5.820312 5.429688 -5.429688 4.921875 -4.765625 L 2.671875 -1.796875 C 2.160156 -1.128906 1.957031 -0.378906 2.0625 0.453125 C 2.175781 1.285156 2.566406 1.953125 3.234375 2.453125 Z M 8.484375 4.921875 L 3.96875 1.484375 C 3.570312 1.179688 3.34375 0.78125 3.28125 0.28125 C 3.21875 -0.21875 3.335938 -0.664062 3.640625 -1.0625 L 5.890625 -4.03125 C 6.191406 -4.425781 6.59375 -4.660156 7.09375 -4.734375 C 7.59375 -4.804688 8.039062 -4.691406 8.4375 -4.390625 L 12.953125 -0.953125 C 13.359375 -0.640625 13.59375 -0.234375 13.65625 0.265625 C 13.71875 0.765625 13.597656 1.210938 13.296875 1.609375 L 11.046875 4.578125 C 10.742188 4.972656 10.34375 5.207031 9.84375 5.28125 C 9.34375 5.351562 8.890625 5.234375 8.484375 4.921875 Z M 8.484375 4.921875 "/></g></g></g><g fill="#ffffff" fill-opacity="1"><g transform="translate(236.979944, 111.524684)"><g/></g></g><g fill="#ffffff" fill-opacity="1"><g transform="translate(239.427398, 113.40525)"><g><path d="M 6.734375 7.5 C 7.296875 8.125 7.992188 8.457031 8.828125 8.5 C 9.671875 8.550781 10.40625 8.296875 11.03125 7.734375 L 13.796875 5.25 C 14.429688 4.6875 14.769531 3.984375 14.8125 3.140625 C 14.851562 2.304688 14.59375 1.578125 14.03125 0.953125 L 8.21875 -5.53125 L 0.921875 1.015625 Z M 7.640625 6.6875 L 2.625 1.109375 L 8.109375 -3.8125 L 13.125 1.765625 C 13.46875 2.140625 13.625 2.578125 13.59375 3.078125 C 13.5625 3.585938 13.359375 4.007812 12.984375 4.34375 L 10.21875 6.828125 C 9.84375 7.160156 9.40625 7.3125 8.90625 7.28125 C 8.40625 7.257812 7.984375 7.0625 7.640625 6.6875 Z M 7.640625 6.6875 "/></g></g></g><g fill="#ffffff" fill-opacity="1"><g transform="translate(248.478729, 123.436295)"><g><path d="M 5.34375 8.140625 C 5.800781 8.847656 6.4375 9.285156 7.25 9.453125 C 8.070312 9.628906 8.835938 9.484375 9.546875 9.015625 L 15.203125 5.3125 L 14.546875 4.296875 L 8.890625 8 C 8.472656 8.269531 8.015625 8.351562 7.515625 8.25 C 7.015625 8.15625 6.628906 7.894531 6.359375 7.46875 L 3.25 2.71875 C 2.96875 2.300781 2.878906 1.84375 2.984375 1.34375 C 3.097656 0.851562 3.363281 0.472656 3.78125 0.203125 L 9.4375 -3.5 L 8.765625 -4.515625 L 3.109375 -0.8125 C 2.398438 -0.34375 1.960938 0.300781 1.796875 1.125 C 1.628906 1.945312 1.773438 2.703125 2.234375 3.390625 Z M 5.34375 8.140625 "/></g></g></g><g fill="#ffffff" fill-opacity="1"><g transform="translate(255.732703, 134.446235)"><g><path d="M 3.0625 6.625 L 2.5625 5.53125 L 6.765625 3.59375 L 8.96875 -3.921875 L 9.75 -2.25 L 7.984375 3.6875 L 13.65625 6.1875 L 14.421875 7.859375 L 7.265625 4.6875 Z M 3.0625 6.625 "/></g></g></g><g fill="#ffffff" fill-opacity="1"><g transform="translate(122.966101, 276.896115)"><g><path d="M 17.609375 -21.265625 L 18.0625 -0.0625 L 11.8125 0.0625 L 11.640625 -7.40625 L 6.875 -7.109375 L 6.390625 -0.09375 L 0.59375 0.03125 L 1.53125 -21.984375 L 2.703125 -23.40625 L 15.78125 -23.96875 Z M 11.609375 -11.96875 L 11.453125 -17.9375 L 7.5 -17.609375 L 7.203125 -12.265625 Z M 11.609375 -11.96875 "/></g></g></g><g fill="#ffffff" fill-opacity="1"><g transform="translate(141.62608, 276.896115)"><g><path d="M 11.671875 -7.40625 L 17.25 -7.015625 L 17.40625 -2.21875 L 16.296875 -0.0625 L 2.765625 0.03125 L 0.75 -1.046875 L 0.59375 -22.015625 L 1.5 -24 L 15.90625 -23.8125 L 17.703125 -22.234375 L 17.28125 -15.75 L 11.609375 -15.75 L 11.09375 -19.140625 L 6.90625 -19.3125 L 7.171875 -4.4375 L 11.15625 -4.140625 Z M 11.671875 -7.40625 "/></g></g></g><g fill="#ffffff" fill-opacity="1"><g transform="translate(159.926063, 276.896115)"><g><path d="M 11.671875 -7.40625 L 17.25 -7.015625 L 17.40625 -2.21875 L 16.296875 -0.0625 L 2.765625 0.03125 L 0.75 -1.046875 L 0.59375 -22.015625 L 1.5 -24 L 15.90625 -23.8125 L 17.703125 -22.234375 L 17.28125 -15.75 L 11.609375 -15.75 L 11.09375 -19.140625 L 6.90625 -19.3125 L 7.171875 -4.4375 L 11.15625 -4.140625 Z M 11.671875 -7.40625 "/></g></g></g><g fill="#ffffff" fill-opacity="1"><g transform="translate(178.226046, 276.896115)"><g><path d="M 16.109375 -24 L 17.515625 -22.46875 L 17.3125 -2.1875 L 16.203125 -0.0625 L 2.734375 0.03125 L 0.75 -1.140625 L 0.59375 -22.40625 L 1.5625 -23.90625 Z M 6.90625 -18.953125 L 7.078125 -5.09375 L 11.125 -4.828125 L 11.1875 -18.59375 Z M 6.90625 -18.953125 "/></g></g></g><g fill="#ffffff" fill-opacity="1"><g transform="translate(196.346025, 276.896115)"><g><path d="M 12.453125 -23.84375 L 17.640625 -24 L 17.34375 -2.25 L 16.234375 -0.125 L 2.9375 -0.03125 L 0.953125 -1.171875 L 0.59375 -24.09375 L 5.765625 -24.09375 L 6.90625 -23.046875 L 7.265625 -5.734375 L 11.1875 -5.453125 L 11.375 -22.703125 Z M 12.453125 -23.84375 "/></g></g></g><g fill="#ffffff" fill-opacity="1"><g transform="translate(214.586006, 276.896115)"><g><path d="M 12.0625 -23.578125 L 18.78125 -23.875 L 17.90625 -0.234375 L 12.546875 -0.03125 L 7.015625 -11.734375 L 6.59375 -0.59375 L 0.59375 0 L 0.78125 -23.84375 L 7.265625 -23.84375 L 12 -13.828125 Z M 12.0625 -23.578125 "/></g></g></g><g fill="#ffffff" fill-opacity="1"><g transform="translate(233.965991, 276.896115)"><g><path d="M 0.59375 -23.9375 L 17.453125 -23.9375 L 17.1875 -18.09375 L 12.421875 -17.875 L 11.765625 -0.515625 L 5.484375 0.09375 L 5.640625 -17.90625 L 0.625 -18.15625 Z M 0.59375 -23.9375 "/></g></g></g><g fill="#ffffff" fill-opacity="1"><g transform="translate(150.89188, 318.896113)"><g><path d="M 16.109375 -13.859375 L 17.578125 -10.703125 L 17.375 -1.796875 L 15.484375 -0.125 L 1.734375 0 L 0.59375 -2.375 L 1.171875 -8.1875 L 6.328125 -8.15625 L 6.75 -5.484375 L 11.34375 -5.578125 L 11.484375 -9.359375 L 2.21875 -10.40625 L 0.875 -11.9375 L 1.015625 -21.984375 L 2.1875 -23.40625 L 13.203125 -23.96875 L 17.0625 -22.859375 L 17.34375 -17.1875 L 16.234375 -16.234375 L 12.03125 -16.015625 L 11.28125 -18.453125 L 7.296875 -18.125 L 6.953125 -14.671875 Z M 16.109375 -13.859375 "/></g></g></g><g fill="#ffffff" fill-opacity="1"><g transform="translate(169.07186, 318.896113)"><g><path d="M 11.765625 -24.09375 L 18.1875 -23.578125 L 17.484375 -0.03125 L 11.125 -0.328125 L 11.375 -9.265625 L 7.203125 -9.421875 L 6.875 -0.515625 L 0.59375 -0.125 L 0.78125 -24.03125 L 7.734375 -24.03125 L 7.40625 -15.0625 L 11.515625 -14.90625 Z M 11.765625 -24.09375 "/></g></g></g><g fill="#ffffff" fill-opacity="1"><g transform="translate(187.851843, 318.896113)"><g><path d="M 16.109375 -24 L 17.515625 -22.46875 L 17.3125 -2.1875 L 16.203125 -0.0625 L 2.734375 0.03125 L 0.75 -1.140625 L 0.59375 -22.40625 L 1.5625 -23.90625 Z M 6.90625 -18.953125 L 7.078125 -5.09375 L 11.125 -4.828125 L 11.1875 -18.59375 Z M 6.90625 -18.953125 "/></g></g></g><g fill="#ffffff" fill-opacity="1"><g transform="translate(205.971821, 318.896113)"><g><path d="M 17.484375 -21.84375 L 17.515625 -7.703125 L 16.265625 -6.234375 L 6.953125 -5.9375 L 6.6875 -0.421875 L 0.59375 0.09375 L 0.59375 -23.90625 L 16.3125 -23.015625 Z M 11.21875 -18.265625 L 7.265625 -18.65625 L 7.109375 -11.34375 L 11.1875 -11.640625 Z M 11.21875 -18.265625 "/></g></g></g></svg>